<svg width="192" height="192" viewBox="0 0 192 192" fill="none" xmlns="http://www.w3.org/2000/svg">
  <rect width="192" height="192" rx="40" fill="#6366F1"/>
  <path d="M96 40C72.8 40 54 58.8 54 82C54 105.2 72.8 124 96 124C119.2 124 138 105.2 138 82C138 58.8 119.2 40 96 40ZM96 112C78.3 112 64 97.7 64 82C64 66.3 78.3 52 96 52C113.7 52 128 66.3 128 82C128 97.7 113.7 112 96 112Z" fill="white"/>
  <path d="M96 64C86.1 64 78 72.1 78 82C78 91.9 86.1 100 96 100C105.9 100 114 91.9 114 82C114 72.1 105.9 64 96 64ZM96 88C91.6 88 88 84.4 88 82C88 79.6 91.6 76 96 76C100.4 76 104 79.6 104 82C104 84.4 100.4 88 96 88Z" fill="white"/>
  <circle cx="96" cy="82" r="6" fill="white"/>
</svg>
