<svg width="512" height="512" viewBox="0 0 512 512" fill="none" xmlns="http://www.w3.org/2000/svg">
  <rect width="512" height="512" rx="100" fill="#6366F1"/>
  <path d="M256 96C191.5 96 140 147.5 140 212C140 276.5 191.5 328 256 328C320.5 328 372 276.5 372 212C372 147.5 320.5 96 256 96ZM256 292C211.8 292 176 256.2 176 212C176 167.8 211.8 132 256 132C300.2 132 336 167.8 336 212C336 256.2 300.2 292 256 292Z" fill="white"/>
  <path d="M256 168C228.4 168 206 190.4 206 218C206 245.6 228.4 268 256 268C283.6 268 306 245.6 306 218C306 190.4 283.6 168 256 168ZM256 232C243.3 232 232 220.7 232 208C232 195.3 243.3 184 256 184C268.7 184 280 195.3 280 208C280 220.7 268.7 232 256 232Z" fill="white"/>
  <circle cx="256" cy="218" r="16" fill="white"/>
</svg>
